<svg width="619" height="380" viewBox="0 0 619 380" fill="none" xmlns="http://www.w3.org/2000/svg">
<path d="M0.18 18H2.898L3.978 15.3H9.036L10.116 18H12.852L7.776 5.4H5.256L0.18 18ZM6.516 9.018L8.028 12.78H5.004L6.516 9.018ZM16.9494 18H19.2894L23.0334 9H20.4954L18.1194 14.724L15.7434 9H13.2054L16.9494 18ZM32.4547 14.67C32.7067 14.13 32.8507 13.554 32.8507 12.924C32.8507 10.602 31.3927 8.73 28.3867 8.73C25.9207 8.73 23.9407 10.872 23.9407 13.5C23.9407 16.128 26.0827 18.27 28.7107 18.27C30.0247 18.27 31.2127 17.748 32.0767 16.884L30.4207 15.228C29.9887 15.66 29.3767 15.93 28.7107 15.93C27.7747 15.93 26.9827 15.426 26.5687 14.67H32.4547ZM28.3867 11.07C29.7007 11.07 30.2047 11.592 30.4027 12.33H26.5327C26.8927 11.574 27.5767 11.07 28.3867 11.07ZM37.1742 13.5C37.1742 12.15 38.2542 11.07 39.6042 11.07V8.73C38.7042 8.73 37.8762 8.982 37.1742 9.414V9H34.8342V18H37.1742V13.5ZM50.5842 9H48.2442V9.414C47.5422 8.982 46.7142 8.73 45.8142 8.73C43.1862 8.73 41.0442 10.872 41.0442 13.5C41.0442 16.128 43.1862 18.27 45.8142 18.27C46.7142 18.27 47.5422 18.018 48.2442 17.604V18H50.5842V9ZM48.2442 13.5C48.2442 14.85 47.1642 15.93 45.8142 15.93C44.4642 15.93 43.3842 14.85 43.3842 13.5C43.3842 12.15 44.4642 11.07 45.8142 11.07C47.1642 11.07 48.2442 12.15 48.2442 13.5ZM62.0979 9H59.7579V9.396C59.0559 8.982 58.2279 8.73 57.3279 8.73C54.6999 8.73 52.5579 10.872 52.5579 13.5C52.5579 16.128 54.6999 18.27 57.3279 18.27C58.2099 18.27 59.0019 18.036 59.7039 17.622C59.4699 18.72 58.4979 19.53 57.3279 19.53C56.6439 19.53 56.0319 19.26 55.5999 18.81L53.9439 20.466C54.8079 21.33 56.0139 21.87 57.3279 21.87C59.9559 21.87 62.0979 19.728 62.0979 17.1V9ZM59.7579 13.5C59.7579 14.85 58.6779 15.93 57.3279 15.93C55.9779 15.93 54.8979 14.85 54.8979 13.5C54.8979 12.15 55.9779 11.07 57.3279 11.07C58.6779 11.07 59.7579 12.15 59.7579 13.5ZM72.5856 14.67C72.8376 14.13 72.9816 13.554 72.9816 12.924C72.9816 10.602 71.5236 8.73 68.5176 8.73C66.0516 8.73 64.0716 10.872 64.0716 13.5C64.0716 16.128 66.2136 18.27 68.8416 18.27C70.1556 18.27 71.3436 17.748 72.2076 16.884L70.5516 15.228C70.1196 15.66 69.5076 15.93 68.8416 15.93C67.9056 15.93 67.1136 15.426 66.6996 14.67H72.5856ZM68.5176 11.07C69.8316 11.07 70.3356 11.592 70.5336 12.33H66.6636C67.0236 11.574 67.7076 11.07 68.5176 11.07ZM82.71 5.4H80.19V18H89.19V15.48H82.71V5.4ZM99.4977 14.67C99.7497 14.13 99.8937 13.554 99.8937 12.924C99.8937 10.602 98.4357 8.73 95.4297 8.73C92.9637 8.73 90.9837 10.872 90.9837 13.5C90.9837 16.128 93.1257 18.27 95.7537 18.27C97.0677 18.27 98.2557 17.748 99.1197 16.884L97.4637 15.228C97.0317 15.66 96.4197 15.93 95.7537 15.93C94.8177 15.93 94.0257 15.426 93.6117 14.67H99.4977ZM95.4297 11.07C96.7437 11.07 97.2477 11.592 97.4457 12.33H93.5757C93.9357 11.574 94.6197 11.07 95.4297 11.07ZM110.877 9H108.537V9.414C107.835 8.982 107.007 8.73 106.107 8.73C103.479 8.73 101.337 10.872 101.337 13.5C101.337 16.128 103.479 18.27 106.107 18.27C107.007 18.27 107.835 18.018 108.537 17.604V18H110.877V9ZM108.537 13.5C108.537 14.85 107.457 15.93 106.107 15.93C104.757 15.93 103.677 14.85 103.677 13.5C103.677 12.15 104.757 11.07 106.107 11.07C107.457 11.07 108.537 12.15 108.537 13.5ZM115.731 13.5C115.731 12.15 116.811 11.07 118.161 11.07V8.73C117.261 8.73 116.433 8.982 115.731 9.414V9H113.391V18H115.731V13.5ZM122.481 9H120.141V18H122.481V12.708C122.517 11.808 123.273 11.07 124.191 11.07C125.127 11.07 125.901 11.844 125.901 12.78V18H128.241V12.78C128.241 10.548 126.423 8.73 124.191 8.73C123.579 8.73 123.003 8.874 122.481 9.108V9ZM130.758 18H133.098V9H130.758V18ZM130.488 6.57C130.488 7.362 131.136 8.01 131.928 8.01C132.72 8.01 133.368 7.362 133.368 6.57C133.368 5.778 132.72 5.13 131.928 5.13C131.136 5.13 130.488 5.778 130.488 6.57ZM137.95 9H135.61V18H137.95V12.708C137.986 11.808 138.742 11.07 139.66 11.07C140.596 11.07 141.37 11.844 141.37 12.78V18H143.71V12.78C143.71 10.548 141.892 8.73 139.66 8.73C139.048 8.73 138.472 8.874 137.95 9.108V9ZM155.227 9H152.887V9.396C152.185 8.982 151.357 8.73 150.457 8.73C147.829 8.73 145.687 10.872 145.687 13.5C145.687 16.128 147.829 18.27 150.457 18.27C151.339 18.27 152.131 18.036 152.833 17.622C152.599 18.72 151.627 19.53 150.457 19.53C149.773 19.53 149.161 19.26 148.729 18.81L147.073 20.466C147.937 21.33 149.143 21.87 150.457 21.87C153.085 21.87 155.227 19.728 155.227 17.1V9ZM152.887 13.5C152.887 14.85 151.807 15.93 150.457 15.93C149.107 15.93 148.027 14.85 148.027 13.5C148.027 12.15 149.107 11.07 150.457 11.07C151.807 11.07 152.887 12.15 152.887 13.5ZM1.44 31.4V44H3.96V39.5H5.274L7.866 44H10.8L8.01 39.176C9.432 38.546 10.44 37.106 10.44 35.45C10.44 33.218 8.622 31.4 6.39 31.4H1.44ZM6.39 33.92C7.236 33.92 7.92 34.604 7.92 35.45C7.92 36.296 7.236 36.98 6.39 36.98H3.96V33.92H6.39ZM20.5719 40.67C20.8239 40.13 20.9679 39.554 20.9679 38.924C20.9679 36.602 19.5099 34.73 16.5039 34.73C14.0379 34.73 12.0579 36.872 12.0579 39.5C12.0579 42.128 14.1999 44.27 16.8279 44.27C18.1419 44.27 19.3299 43.748 20.1939 42.884L18.5379 41.228C18.1059 41.66 17.4939 41.93 16.8279 41.93C15.8919 41.93 15.0999 41.426 14.6859 40.67H20.5719ZM16.5039 37.07C17.8179 37.07 18.3219 37.592 18.5199 38.33H14.6499C15.0099 37.574 15.6939 37.07 16.5039 37.07ZM22.2314 37.34H24.5714V40.22C24.5714 42.452 26.3894 44.27 28.6214 44.27V41.93C27.6854 41.93 26.9114 41.156 26.9114 40.22V37.34H29.7914V35H26.9114V32.48H24.5714V35H22.2314V37.34ZM39.5738 40.67C39.8258 40.13 39.9698 39.554 39.9698 38.924C39.9698 36.602 38.5118 34.73 35.5058 34.73C33.0398 34.73 31.0598 36.872 31.0598 39.5C31.0598 42.128 33.2018 44.27 35.8298 44.27C37.1438 44.27 38.3318 43.748 39.1958 42.884L37.5398 41.228C37.1078 41.66 36.4958 41.93 35.8298 41.93C34.8938 41.93 34.1018 41.426 33.6878 40.67H39.5738ZM35.5058 37.07C36.8198 37.07 37.3238 37.592 37.5218 38.33H33.6518C34.0118 37.574 34.6958 37.07 35.5058 37.07ZM44.2934 35H41.9534V44H44.2934V38.708C44.3294 37.808 45.0854 37.07 46.0034 37.07C46.9394 37.07 47.7134 37.844 47.7134 38.78V44H50.0534V38.78C50.0534 36.548 48.2354 34.73 46.0034 34.73C45.3914 34.73 44.8154 34.874 44.2934 35.108V35ZM51.8505 37.34H54.1905V40.22C54.1905 42.452 56.0085 44.27 58.2405 44.27V41.93C57.3045 41.93 56.5305 41.156 56.5305 40.22V37.34H59.4105V35H56.5305V32.48H54.1905V35H51.8505V37.34ZM61.219 44H63.559V35H61.219V44ZM60.949 32.57C60.949 33.362 61.597 34.01 62.389 34.01C63.181 34.01 63.829 33.362 63.829 32.57C63.829 31.778 63.181 31.13 62.389 31.13C61.597 31.13 60.949 31.778 60.949 32.57ZM65.5305 39.5C65.5305 42.128 67.6725 44.27 70.3005 44.27C72.9285 44.27 75.0705 42.128 75.0705 39.5C75.0705 36.872 72.9285 34.73 70.3005 34.73C67.6725 34.73 65.5305 36.872 65.5305 39.5ZM67.8705 39.5C67.8705 38.15 68.9505 37.07 70.3005 37.07C71.6505 37.07 72.7305 38.15 72.7305 39.5C72.7305 40.85 71.6505 41.93 70.3005 41.93C68.9505 41.93 67.8705 40.85 67.8705 39.5ZM79.3969 35H77.0569V44H79.3969V38.708C79.4329 37.808 80.1889 37.07 81.1069 37.07C82.0429 37.07 82.8169 37.844 82.8169 38.78V44H85.1569V38.78C85.1569 36.548 83.3389 34.73 81.1069 34.73C80.4949 34.73 79.9189 34.874 79.3969 35.108V35ZM92.899 31.4V44H95.419V39.5H96.733L99.325 44H102.259L99.469 39.176C100.891 38.546 101.899 37.106 101.899 35.45C101.899 33.218 100.081 31.4 97.849 31.4H92.899ZM97.849 33.92C98.695 33.92 99.379 34.604 99.379 35.45C99.379 36.296 98.695 36.98 97.849 36.98H95.419V33.92H97.849ZM113.057 35H110.717V35.414C110.015 34.982 109.187 34.73 108.287 34.73C105.659 34.73 103.517 36.872 103.517 39.5C103.517 42.128 105.659 44.27 108.287 44.27C109.187 44.27 110.015 44.018 110.717 43.604V44H113.057V35ZM110.717 39.5C110.717 40.85 109.637 41.93 108.287 41.93C106.937 41.93 105.857 40.85 105.857 39.5C105.857 38.15 106.937 37.07 108.287 37.07C109.637 37.07 110.717 38.15 110.717 39.5ZM114.851 37.34H117.191V40.22C117.191 42.452 119.009 44.27 121.241 44.27V41.93C120.305 41.93 119.531 41.156 119.531 40.22V37.34H122.411V35H119.531V32.48H117.191V35H114.851V37.34ZM132.193 40.67C132.445 40.13 132.589 39.554 132.589 38.924C132.589 36.602 131.131 34.73 128.125 34.73C125.659 34.73 123.679 36.872 123.679 39.5C123.679 42.128 125.821 44.27 128.449 44.27C129.763 44.27 130.951 43.748 131.815 42.884L130.159 41.228C129.727 41.66 129.115 41.93 128.449 41.93C127.513 41.93 126.721 41.426 126.307 40.67H132.193ZM128.125 37.07C129.439 37.07 129.943 37.592 130.141 38.33H126.271C126.631 37.574 127.315 37.07 128.125 37.07ZM133.673 41.3C133.673 42.938 135.005 44.27 136.643 44.27C138.281 44.27 139.613 42.938 139.613 41.3C139.613 39.086 136.769 38.582 136.769 37.7C136.769 37.358 137.057 37.07 137.399 37.07C137.741 37.07 138.029 37.358 138.029 37.7H140.369C140.369 36.062 139.037 34.73 137.399 34.73C135.761 34.73 134.429 36.062 134.429 37.7C134.429 39.914 137.273 40.418 137.273 41.3C137.273 41.642 136.985 41.93 136.643 41.93C136.301 41.93 136.013 41.642 136.013 41.3H133.673Z" fill="#333333"/>
<path d="M257 0L514 380H0L257 0Z" fill="#D9D9D9"/>
<mask id="mask0_3_932" style="mask-type:alpha" maskUnits="userSpaceOnUse" x="0" y="0" width="514" height="380">
<path d="M257 0L514 380H0L257 0Z" fill="#D9D9D9"/>
</mask>
<g mask="url(#mask0_3_932)">
<rect y="325" width="514" height="55" fill="#649738"/>
<rect y="218" width="514" height="55" fill="#78AB4C"/>
<rect y="109" width="514" height="55" fill="#8CBF60"/>
<rect y="271" width="514" height="55" fill="#6EA142"/>
<rect y="164" width="514" height="55" fill="#82B556"/>
<rect y="55" width="514" height="55" fill="#96C96A"/>
<rect width="514" height="55" fill="#A0D374"/>
</g>
<path d="M250.974 34.192C249.214 34.192 247.843 33.6587 246.862 32.592L248.126 31.008C248.873 31.7867 249.817 32.176 250.958 32.176C251.566 32.176 252.046 32.0267 252.398 31.728C252.761 31.4187 252.942 31.04 252.942 30.592C252.942 30.112 252.771 29.728 252.43 29.44C252.089 29.152 251.619 29.008 251.022 29.008C250.137 29.008 249.39 29.296 248.782 29.872L247.198 29.456V23.328H254.526V25.328H249.47V27.936C250.067 27.3387 250.851 27.04 251.822 27.04C252.771 27.04 253.577 27.3547 254.238 27.984C254.91 28.6133 255.246 29.4507 255.246 30.496C255.246 31.6267 254.857 32.528 254.078 33.2C253.299 33.8613 252.265 34.192 250.974 34.192ZM258.933 28.48C258.133 28.48 257.482 28.2347 256.981 27.744C256.479 27.2427 256.229 26.6133 256.229 25.856C256.229 25.088 256.479 24.448 256.981 23.936C257.482 23.424 258.133 23.168 258.933 23.168C259.743 23.168 260.399 23.424 260.901 23.936C261.402 24.448 261.653 25.088 261.653 25.856C261.653 26.6133 261.402 27.2427 260.901 27.744C260.399 28.2347 259.743 28.48 258.933 28.48ZM259.093 34H257.893L264.709 23.328H265.925L259.093 34ZM266.757 33.44C266.255 33.9413 265.605 34.192 264.805 34.192C264.005 34.192 263.354 33.9413 262.853 33.44C262.351 32.9387 262.101 32.3093 262.101 31.552C262.101 30.784 262.351 30.144 262.853 29.632C263.354 29.12 264.005 28.864 264.805 28.864C265.605 28.864 266.255 29.12 266.757 29.632C267.269 30.144 267.525 30.784 267.525 31.552C267.525 32.3093 267.269 32.9387 266.757 33.44ZM258.933 27.232C259.306 27.232 259.61 27.1093 259.845 26.864C260.079 26.608 260.197 26.272 260.197 25.856C260.197 25.4187 260.079 25.072 259.845 24.816C259.61 24.56 259.306 24.432 258.933 24.432C258.559 24.432 258.255 24.56 258.021 24.816C257.786 25.072 257.669 25.4187 257.669 25.856C257.669 26.2613 257.786 26.592 258.021 26.848C258.266 27.104 258.57 27.232 258.933 27.232ZM263.892 32.576C264.127 32.8213 264.431 32.944 264.805 32.944C265.178 32.944 265.482 32.8213 265.717 32.576C265.962 32.32 266.085 31.9787 266.085 31.552C266.085 31.1147 265.962 30.768 265.717 30.512C265.482 30.256 265.178 30.128 264.805 30.128C264.431 30.128 264.127 30.256 263.892 30.512C263.658 30.768 263.541 31.1147 263.541 31.552C263.541 31.9787 263.658 32.32 263.892 32.576Z" fill="white"/>
<path d="M248.715 88H246.443V80.256L244.667 82.064L243.371 80.704L246.731 77.328H248.715V88ZM257.213 87.376C256.531 87.92 255.704 88.192 254.733 88.192C253.763 88.192 252.931 87.92 252.237 87.376C251.555 86.8213 251.064 86.1387 250.765 85.328C250.467 84.5173 250.317 83.632 250.317 82.672C250.317 81.712 250.467 80.8267 250.765 80.016C251.064 79.2053 251.555 78.528 252.237 77.984C252.931 77.44 253.763 77.168 254.733 77.168C255.704 77.168 256.531 77.44 257.213 77.984C257.896 78.528 258.387 79.2053 258.685 80.016C258.995 80.8267 259.149 81.712 259.149 82.672C259.149 83.632 258.995 84.5173 258.685 85.328C258.387 86.1387 257.896 86.8213 257.213 87.376ZM253.133 85.216C253.475 85.856 254.008 86.176 254.733 86.176C255.459 86.176 255.987 85.856 256.317 85.216C256.659 84.576 256.829 83.728 256.829 82.672C256.829 81.616 256.659 80.7733 256.317 80.144C255.987 79.504 255.459 79.184 254.733 79.184C254.008 79.184 253.475 79.504 253.133 80.144C252.792 80.7733 252.621 81.616 252.621 82.672C252.621 83.728 252.792 84.576 253.133 85.216ZM262.815 82.48C262.015 82.48 261.365 82.2347 260.863 81.744C260.362 81.2427 260.111 80.6133 260.111 79.856C260.111 79.088 260.362 78.448 260.863 77.936C261.365 77.424 262.015 77.168 262.815 77.168C263.626 77.168 264.282 77.424 264.783 77.936C265.285 78.448 265.535 79.088 265.535 79.856C265.535 80.6133 265.285 81.2427 264.783 81.744C264.282 82.2347 263.626 82.48 262.815 82.48ZM262.975 88H261.775L268.591 77.328H269.807L262.975 88ZM270.639 87.44C270.138 87.9413 269.487 88.192 268.687 88.192C267.887 88.192 267.237 87.9413 266.735 87.44C266.234 86.9387 265.983 86.3093 265.983 85.552C265.983 84.784 266.234 84.144 266.735 83.632C267.237 83.12 267.887 82.864 268.687 82.864C269.487 82.864 270.138 83.12 270.639 83.632C271.151 84.144 271.407 84.784 271.407 85.552C271.407 86.3093 271.151 86.9387 270.639 87.44ZM262.815 81.232C263.189 81.232 263.493 81.1093 263.727 80.864C263.962 80.608 264.079 80.272 264.079 79.856C264.079 79.4187 263.962 79.072 263.727 78.816C263.493 78.56 263.189 78.432 262.815 78.432C262.442 78.432 262.138 78.56 261.903 78.816C261.669 79.072 261.551 79.4187 261.551 79.856C261.551 80.2613 261.669 80.592 261.903 80.848C262.149 81.104 262.453 81.232 262.815 81.232ZM267.775 86.576C268.01 86.8213 268.314 86.944 268.687 86.944C269.061 86.944 269.365 86.8213 269.599 86.576C269.845 86.32 269.967 85.9787 269.967 85.552C269.967 85.1147 269.845 84.768 269.599 84.512C269.365 84.256 269.061 84.128 268.687 84.128C268.314 84.128 268.01 84.256 267.775 84.512C267.541 84.768 267.423 85.1147 267.423 85.552C267.423 85.9787 267.541 86.32 267.775 86.576Z" fill="white"/>
<path d="M249.972 142H241.94V140.224C244.222 138.528 245.732 137.323 246.468 136.608C247.214 135.883 247.588 135.205 247.588 134.576C247.588 134.139 247.417 133.797 247.076 133.552C246.734 133.307 246.329 133.184 245.86 133.184C244.74 133.184 243.785 133.595 242.996 134.416L241.7 132.912C242.201 132.336 242.814 131.904 243.539 131.616C244.276 131.317 245.033 131.168 245.812 131.168C246.985 131.168 247.956 131.477 248.724 132.096C249.502 132.715 249.892 133.541 249.892 134.576C249.892 135.451 249.545 136.309 248.852 137.152C248.169 137.984 247.092 138.933 245.62 140H249.972V142ZM258.221 141.376C257.539 141.92 256.712 142.192 255.741 142.192C254.771 142.192 253.939 141.92 253.245 141.376C252.563 140.821 252.072 140.139 251.773 139.328C251.475 138.517 251.325 137.632 251.325 136.672C251.325 135.712 251.475 134.827 251.773 134.016C252.072 133.205 252.563 132.528 253.245 131.984C253.939 131.44 254.771 131.168 255.741 131.168C256.712 131.168 257.539 131.44 258.221 131.984C258.904 132.528 259.395 133.205 259.693 134.016C260.003 134.827 260.157 135.712 260.157 136.672C260.157 137.632 260.003 138.517 259.693 139.328C259.395 140.139 258.904 140.821 258.221 141.376ZM254.141 139.216C254.483 139.856 255.016 140.176 255.741 140.176C256.467 140.176 256.995 139.856 257.325 139.216C257.667 138.576 257.837 137.728 257.837 136.672C257.837 135.616 257.667 134.773 257.325 134.144C256.995 133.504 256.467 133.184 255.741 133.184C255.016 133.184 254.483 133.504 254.141 134.144C253.8 134.773 253.629 135.616 253.629 136.672C253.629 137.728 253.8 138.576 254.141 139.216ZM263.823 136.48C263.023 136.48 262.372 136.235 261.871 135.744C261.37 135.243 261.119 134.613 261.119 133.856C261.119 133.088 261.37 132.448 261.871 131.936C262.372 131.424 263.023 131.168 263.823 131.168C264.634 131.168 265.29 131.424 265.791 131.936C266.292 132.448 266.543 133.088 266.543 133.856C266.543 134.613 266.292 135.243 265.791 135.744C265.29 136.235 264.634 136.48 263.823 136.48ZM263.983 142H262.783L269.599 131.328H270.815L263.983 142ZM271.647 141.44C271.146 141.941 270.495 142.192 269.695 142.192C268.895 142.192 268.244 141.941 267.743 141.44C267.242 140.939 266.991 140.309 266.991 139.552C266.991 138.784 267.242 138.144 267.743 137.632C268.244 137.12 268.895 136.864 269.695 136.864C270.495 136.864 271.146 137.12 271.647 137.632C272.159 138.144 272.415 138.784 272.415 139.552C272.415 140.309 272.159 140.939 271.647 141.44ZM263.823 135.232C264.196 135.232 264.5 135.109 264.735 134.864C264.97 134.608 265.087 134.272 265.087 133.856C265.087 133.419 264.97 133.072 264.735 132.816C264.5 132.56 264.196 132.432 263.823 132.432C263.45 132.432 263.146 132.56 262.911 132.816C262.676 133.072 262.559 133.419 262.559 133.856C262.559 134.261 262.676 134.592 262.911 134.848C263.156 135.104 263.46 135.232 263.823 135.232ZM268.783 140.576C269.018 140.821 269.322 140.944 269.695 140.944C270.068 140.944 270.372 140.821 270.607 140.576C270.852 140.32 270.975 139.979 270.975 139.552C270.975 139.115 270.852 138.768 270.607 138.512C270.372 138.256 270.068 138.128 269.695 138.128C269.322 138.128 269.018 138.256 268.783 138.512C268.548 138.768 268.431 139.115 268.431 139.552C268.431 139.979 268.548 140.32 268.783 140.576Z" fill="white"/>
<path d="M245.817 197.192C244.878 197.192 244.046 197.037 243.321 196.728C242.596 196.408 242.025 195.992 241.609 195.48L242.793 193.96C243.156 194.333 243.604 194.632 244.137 194.856C244.67 195.069 245.204 195.176 245.737 195.176C246.377 195.176 246.873 195.053 247.225 194.808C247.577 194.552 247.753 194.221 247.753 193.816C247.753 193.389 247.582 193.08 247.241 192.888C246.9 192.685 246.356 192.584 245.609 192.584C244.937 192.584 244.494 192.595 244.281 192.616V190.568C244.409 190.579 244.852 190.584 245.609 190.584C246.921 190.584 247.577 190.205 247.577 189.448C247.577 189.043 247.39 188.733 247.017 188.52C246.654 188.296 246.18 188.184 245.593 188.184C244.558 188.184 243.657 188.552 242.889 189.288L241.753 187.864C242.756 186.733 244.116 186.168 245.833 186.168C247.081 186.168 248.062 186.429 248.777 186.952C249.502 187.475 249.865 188.179 249.865 189.064C249.865 189.704 249.636 190.243 249.177 190.68C248.718 191.107 248.169 191.379 247.529 191.496C248.158 191.56 248.729 191.821 249.241 192.28C249.764 192.728 250.025 193.32 250.025 194.056C250.025 194.984 249.641 195.741 248.873 196.328C248.105 196.904 247.086 197.192 245.817 197.192ZM258.12 196.376C257.437 196.92 256.61 197.192 255.64 197.192C254.669 197.192 253.837 196.92 253.144 196.376C252.461 195.821 251.97 195.139 251.672 194.328C251.373 193.517 251.224 192.632 251.224 191.672C251.224 190.712 251.373 189.827 251.672 189.016C251.97 188.205 252.461 187.528 253.144 186.984C253.837 186.44 254.669 186.168 255.64 186.168C256.61 186.168 257.437 186.44 258.12 186.984C258.802 187.528 259.293 188.205 259.592 189.016C259.901 189.827 260.056 190.712 260.056 191.672C260.056 192.632 259.901 193.517 259.592 194.328C259.293 195.139 258.802 195.821 258.12 196.376ZM254.04 194.216C254.381 194.856 254.914 195.176 255.64 195.176C256.365 195.176 256.893 194.856 257.224 194.216C257.565 193.576 257.736 192.728 257.736 191.672C257.736 190.616 257.565 189.773 257.224 189.144C256.893 188.504 256.365 188.184 255.64 188.184C254.914 188.184 254.381 188.504 254.04 189.144C253.698 189.773 253.528 190.616 253.528 191.672C253.528 192.728 253.698 193.576 254.04 194.216ZM263.722 191.48C262.922 191.48 262.271 191.235 261.77 190.744C261.268 190.243 261.018 189.613 261.018 188.856C261.018 188.088 261.268 187.448 261.77 186.936C262.271 186.424 262.922 186.168 263.722 186.168C264.532 186.168 265.188 186.424 265.69 186.936C266.191 187.448 266.442 188.088 266.442 188.856C266.442 189.613 266.191 190.243 265.69 190.744C265.188 191.235 264.532 191.48 263.722 191.48ZM263.882 197H262.682L269.498 186.328H270.714L263.882 197ZM271.546 196.44C271.044 196.941 270.394 197.192 269.594 197.192C268.794 197.192 268.143 196.941 267.642 196.44C267.14 195.939 266.89 195.309 266.89 194.552C266.89 193.784 267.14 193.144 267.642 192.632C268.143 192.12 268.794 191.864 269.594 191.864C270.394 191.864 271.044 192.12 271.546 192.632C272.058 193.144 272.314 193.784 272.314 194.552C272.314 195.309 272.058 195.939 271.546 196.44ZM263.722 190.232C264.095 190.232 264.399 190.109 264.634 189.864C264.868 189.608 264.986 189.272 264.986 188.856C264.986 188.419 264.868 188.072 264.634 187.816C264.399 187.56 264.095 187.432 263.722 187.432C263.348 187.432 263.044 187.56 262.81 187.816C262.575 188.072 262.458 188.419 262.458 188.856C262.458 189.261 262.575 189.592 262.81 189.848C263.055 190.104 263.359 190.232 263.722 190.232ZM268.682 195.576C268.916 195.821 269.22 195.944 269.594 195.944C269.967 195.944 270.271 195.821 270.506 195.576C270.751 195.32 270.874 194.979 270.874 194.552C270.874 194.115 270.751 193.768 270.506 193.512C270.271 193.256 269.967 193.128 269.594 193.128C269.22 193.128 268.916 193.256 268.682 193.512C268.447 193.768 268.33 194.115 268.33 194.552C268.33 194.979 268.447 195.32 268.682 195.576Z" fill="white"/>
<path d="M246.013 251.192C244.253 251.192 242.883 250.659 241.901 249.592L243.165 248.008C243.912 248.787 244.856 249.176 245.997 249.176C246.605 249.176 247.085 249.027 247.437 248.728C247.8 248.419 247.981 248.04 247.981 247.592C247.981 247.112 247.811 246.728 247.469 246.44C247.128 246.152 246.659 246.008 246.061 246.008C245.176 246.008 244.429 246.296 243.821 246.872L242.237 246.456V240.328H249.565V242.328H244.509V244.936C245.107 244.339 245.891 244.04 246.861 244.04C247.811 244.04 248.616 244.355 249.277 244.984C249.949 245.613 250.285 246.451 250.285 247.496C250.285 248.627 249.896 249.528 249.117 250.2C248.339 250.861 247.304 251.192 246.013 251.192ZM258.292 250.376C257.609 250.92 256.782 251.192 255.812 251.192C254.841 251.192 254.009 250.92 253.316 250.376C252.633 249.821 252.142 249.139 251.844 248.328C251.545 247.517 251.396 246.632 251.396 245.672C251.396 244.712 251.545 243.827 251.844 243.016C252.142 242.205 252.633 241.528 253.316 240.984C254.009 240.44 254.841 240.168 255.812 240.168C256.782 240.168 257.609 240.44 258.292 240.984C258.974 241.528 259.465 242.205 259.764 243.016C260.073 243.827 260.228 244.712 260.228 245.672C260.228 246.632 260.073 247.517 259.764 248.328C259.465 249.139 258.974 249.821 258.292 250.376ZM254.212 248.216C254.553 248.856 255.086 249.176 255.812 249.176C256.537 249.176 257.065 248.856 257.396 248.216C257.737 247.576 257.908 246.728 257.908 245.672C257.908 244.616 257.737 243.773 257.396 243.144C257.065 242.504 256.537 242.184 255.812 242.184C255.086 242.184 254.553 242.504 254.212 243.144C253.87 243.773 253.7 244.616 253.7 245.672C253.7 246.728 253.87 247.576 254.212 248.216ZM263.893 245.48C263.093 245.48 262.443 245.235 261.941 244.744C261.44 244.243 261.189 243.613 261.189 242.856C261.189 242.088 261.44 241.448 261.941 240.936C262.443 240.424 263.093 240.168 263.893 240.168C264.704 240.168 265.36 240.424 265.861 240.936C266.363 241.448 266.613 242.088 266.613 242.856C266.613 243.613 266.363 244.243 265.861 244.744C265.36 245.235 264.704 245.48 263.893 245.48ZM264.053 251H262.853L269.669 240.328H270.885L264.053 251ZM271.717 250.44C271.216 250.941 270.565 251.192 269.765 251.192C268.965 251.192 268.315 250.941 267.813 250.44C267.312 249.939 267.061 249.309 267.061 248.552C267.061 247.784 267.312 247.144 267.813 246.632C268.315 246.12 268.965 245.864 269.765 245.864C270.565 245.864 271.216 246.12 271.717 246.632C272.229 247.144 272.485 247.784 272.485 248.552C272.485 249.309 272.229 249.939 271.717 250.44ZM263.893 244.232C264.267 244.232 264.571 244.109 264.805 243.864C265.04 243.608 265.157 243.272 265.157 242.856C265.157 242.419 265.04 242.072 264.805 241.816C264.571 241.56 264.267 241.432 263.893 241.432C263.52 241.432 263.216 241.56 262.981 241.816C262.747 242.072 262.629 242.419 262.629 242.856C262.629 243.261 262.747 243.592 262.981 243.848C263.227 244.104 263.531 244.232 263.893 244.232ZM268.853 249.576C269.088 249.821 269.392 249.944 269.765 249.944C270.139 249.944 270.443 249.821 270.677 249.576C270.923 249.32 271.045 248.979 271.045 248.552C271.045 248.115 270.923 247.768 270.677 247.512C270.443 247.256 270.139 247.128 269.765 247.128C269.392 247.128 269.088 247.256 268.853 247.512C268.619 247.768 268.501 248.115 268.501 248.552C268.501 248.979 268.619 249.32 268.853 249.576Z" fill="white"/>
<path d="M246.651 304H244.155L247.979 295.328H242.603V293.328H250.619V294.912L246.651 304ZM255.834 304.192C254.074 304.192 252.703 303.659 251.722 302.592L252.986 301.008C253.732 301.787 254.676 302.176 255.818 302.176C256.426 302.176 256.906 302.027 257.258 301.728C257.62 301.419 257.802 301.04 257.802 300.592C257.802 300.112 257.631 299.728 257.29 299.44C256.948 299.152 256.479 299.008 255.882 299.008C254.996 299.008 254.25 299.296 253.642 299.872L252.058 299.456V293.328H259.385V295.328H254.33V297.936C254.927 297.339 255.711 297.04 256.682 297.04C257.631 297.04 258.436 297.355 259.098 297.984C259.77 298.613 260.106 299.451 260.106 300.496C260.106 301.627 259.716 302.528 258.938 303.2C258.159 303.861 257.124 304.192 255.834 304.192ZM263.792 298.48C262.992 298.48 262.341 298.235 261.84 297.744C261.339 297.243 261.088 296.613 261.088 295.856C261.088 295.088 261.339 294.448 261.84 293.936C262.341 293.424 262.992 293.168 263.792 293.168C264.603 293.168 265.259 293.424 265.76 293.936C266.261 294.448 266.512 295.088 266.512 295.856C266.512 296.613 266.261 297.243 265.76 297.744C265.259 298.235 264.603 298.48 263.792 298.48ZM263.952 304H262.752L269.568 293.328H270.784L263.952 304ZM271.616 303.44C271.115 303.941 270.464 304.192 269.664 304.192C268.864 304.192 268.213 303.941 267.712 303.44C267.211 302.939 266.96 302.309 266.96 301.552C266.96 300.784 267.211 300.144 267.712 299.632C268.213 299.12 268.864 298.864 269.664 298.864C270.464 298.864 271.115 299.12 271.616 299.632C272.128 300.144 272.384 300.784 272.384 301.552C272.384 302.309 272.128 302.939 271.616 303.44ZM263.792 297.232C264.165 297.232 264.469 297.109 264.704 296.864C264.939 296.608 265.056 296.272 265.056 295.856C265.056 295.419 264.939 295.072 264.704 294.816C264.469 294.56 264.165 294.432 263.792 294.432C263.419 294.432 263.115 294.56 262.88 294.816C262.645 295.072 262.528 295.419 262.528 295.856C262.528 296.261 262.645 296.592 262.88 296.848C263.125 297.104 263.429 297.232 263.792 297.232ZM268.752 302.576C268.987 302.821 269.291 302.944 269.664 302.944C270.037 302.944 270.341 302.821 270.576 302.576C270.821 302.32 270.944 301.979 270.944 301.552C270.944 301.115 270.821 300.768 270.576 300.512C270.341 300.256 270.037 300.128 269.664 300.128C269.291 300.128 268.987 300.256 268.752 300.512C268.517 300.768 268.4 301.115 268.4 301.552C268.4 301.979 268.517 302.32 268.752 302.576Z" fill="white"/>
<path d="M245.325 358.176C244.056 358.176 243.011 357.808 242.189 357.072L243.197 355.328C243.784 355.883 244.493 356.16 245.325 356.16C246.157 356.16 246.808 355.867 247.277 355.28C247.757 354.683 247.997 353.973 247.997 353.152V352.912C247.72 353.296 247.331 353.621 246.829 353.888C246.328 354.155 245.8 354.288 245.245 354.288C244.232 354.288 243.368 353.984 242.653 353.376C241.949 352.757 241.597 351.904 241.597 350.816C241.597 349.76 241.976 348.885 242.733 348.192C243.501 347.499 244.488 347.152 245.693 347.152C246.728 347.152 247.597 347.408 248.301 347.92C249.016 348.432 249.523 349.093 249.821 349.904C250.131 350.704 250.285 351.627 250.285 352.672C250.285 354.315 249.843 355.643 248.957 356.656C248.083 357.669 246.872 358.176 245.325 358.176ZM245.885 352.336C246.739 352.336 247.437 352.005 247.981 351.344C247.928 350.747 247.725 350.235 247.373 349.808C247.021 349.381 246.499 349.168 245.805 349.168C245.229 349.168 244.771 349.328 244.429 349.648C244.088 349.968 243.917 350.331 243.917 350.736C243.917 351.259 244.109 351.659 244.493 351.936C244.877 352.203 245.341 352.336 245.885 352.336ZM258.292 357.376C257.609 357.92 256.782 358.192 255.812 358.192C254.841 358.192 254.009 357.92 253.316 357.376C252.633 356.821 252.142 356.139 251.844 355.328C251.545 354.517 251.396 353.632 251.396 352.672C251.396 351.712 251.545 350.827 251.844 350.016C252.142 349.205 252.633 348.528 253.316 347.984C254.009 347.44 254.841 347.168 255.812 347.168C256.782 347.168 257.609 347.44 258.292 347.984C258.974 348.528 259.465 349.205 259.764 350.016C260.073 350.827 260.228 351.712 260.228 352.672C260.228 353.632 260.073 354.517 259.764 355.328C259.465 356.139 258.974 356.821 258.292 357.376ZM254.212 355.216C254.553 355.856 255.086 356.176 255.812 356.176C256.537 356.176 257.065 355.856 257.396 355.216C257.737 354.576 257.908 353.728 257.908 352.672C257.908 351.616 257.737 350.773 257.396 350.144C257.065 349.504 256.537 349.184 255.812 349.184C255.086 349.184 254.553 349.504 254.212 350.144C253.87 350.773 253.7 351.616 253.7 352.672C253.7 353.728 253.87 354.576 254.212 355.216ZM263.893 352.48C263.093 352.48 262.443 352.235 261.941 351.744C261.44 351.243 261.189 350.613 261.189 349.856C261.189 349.088 261.44 348.448 261.941 347.936C262.443 347.424 263.093 347.168 263.893 347.168C264.704 347.168 265.36 347.424 265.861 347.936C266.363 348.448 266.613 349.088 266.613 349.856C266.613 350.613 266.363 351.243 265.861 351.744C265.36 352.235 264.704 352.48 263.893 352.48ZM264.053 358H262.853L269.669 347.328H270.885L264.053 358ZM271.717 357.44C271.216 357.941 270.565 358.192 269.765 358.192C268.965 358.192 268.315 357.941 267.813 357.44C267.312 356.939 267.061 356.309 267.061 355.552C267.061 354.784 267.312 354.144 267.813 353.632C268.315 353.12 268.965 352.864 269.765 352.864C270.565 352.864 271.216 353.12 271.717 353.632C272.229 354.144 272.485 354.784 272.485 355.552C272.485 356.309 272.229 356.939 271.717 357.44ZM263.893 351.232C264.267 351.232 264.571 351.109 264.805 350.864C265.04 350.608 265.157 350.272 265.157 349.856C265.157 349.419 265.04 349.072 264.805 348.816C264.571 348.56 264.267 348.432 263.893 348.432C263.52 348.432 263.216 348.56 262.981 348.816C262.747 349.072 262.629 349.419 262.629 349.856C262.629 350.261 262.747 350.592 262.981 350.848C263.227 351.104 263.531 351.232 263.893 351.232ZM268.853 356.576C269.088 356.821 269.392 356.944 269.765 356.944C270.139 356.944 270.443 356.821 270.677 356.576C270.923 356.32 271.045 355.979 271.045 355.552C271.045 355.115 270.923 354.768 270.677 354.512C270.443 354.256 270.139 354.128 269.765 354.128C269.392 354.128 269.088 354.256 268.853 354.512C268.619 354.768 268.501 355.115 268.501 355.552C268.501 355.979 268.619 356.32 268.853 356.576Z" fill="white"/>
<rect width="145" height="34" transform="translate(448 282)" fill="white"/>
<path d="M460.576 304H459.248V293.328H463.536C464.571 293.328 465.387 293.637 465.984 294.256C466.581 294.875 466.88 295.637 466.88 296.544C466.88 297.451 466.576 298.213 465.968 298.832C465.371 299.451 464.56 299.76 463.536 299.76H460.576V304ZM463.376 298.576C464.005 298.576 464.517 298.389 464.912 298.016C465.307 297.632 465.504 297.141 465.504 296.544C465.504 295.947 465.307 295.461 464.912 295.088C464.517 294.704 464.005 294.512 463.376 294.512H460.576V298.576H463.376ZM469.791 304H468.591V296.272H469.791V297.52C470.505 296.581 471.364 296.112 472.367 296.112V297.344C472.217 297.312 472.057 297.296 471.887 297.296C471.524 297.296 471.129 297.424 470.703 297.68C470.276 297.936 469.972 298.219 469.791 298.528V304ZM479.904 304H478.704V303.12C478.053 303.835 477.2 304.192 476.144 304.192C475.429 304.192 474.8 303.963 474.256 303.504C473.712 303.045 473.44 302.421 473.44 301.632C473.44 300.821 473.707 300.197 474.24 299.76C474.784 299.312 475.419 299.088 476.144 299.088C477.243 299.088 478.096 299.44 478.704 300.144V298.752C478.704 298.24 478.523 297.84 478.16 297.552C477.797 297.264 477.328 297.12 476.752 297.12C475.845 297.12 475.056 297.477 474.384 298.192L473.824 297.36C474.645 296.507 475.675 296.08 476.912 296.08C477.797 296.08 478.517 296.293 479.072 296.72C479.627 297.147 479.904 297.803 479.904 298.688V304ZM476.576 303.328C477.536 303.328 478.245 303.008 478.704 302.368V300.912C478.245 300.272 477.536 299.952 476.576 299.952C476.021 299.952 475.563 300.112 475.2 300.432C474.848 300.741 474.672 301.147 474.672 301.648C474.672 302.139 474.848 302.544 475.2 302.864C475.563 303.173 476.021 303.328 476.576 303.328ZM485.717 304.192C484.576 304.192 483.648 303.808 482.933 303.04C482.219 302.261 481.861 301.291 481.861 300.128C481.861 298.965 482.219 298 482.933 297.232C483.648 296.464 484.576 296.08 485.717 296.08C486.912 296.08 487.856 296.528 488.549 297.424L487.749 298.16C487.259 297.488 486.603 297.152 485.781 297.152C484.971 297.152 484.32 297.429 483.829 297.984C483.349 298.539 483.109 299.253 483.109 300.128C483.109 301.003 483.349 301.723 483.829 302.288C484.32 302.843 484.971 303.12 485.781 303.12C486.592 303.12 487.248 302.784 487.749 302.112L488.549 302.848C487.856 303.744 486.912 304.192 485.717 304.192ZM492.183 304.192C491.618 304.192 491.191 304.037 490.903 303.728C490.615 303.419 490.471 302.971 490.471 302.384V297.328H489.191V296.272H490.471V294.16H491.671V296.272H493.239V297.328H491.671V302.128C491.671 302.427 491.735 302.667 491.863 302.848C492.002 303.029 492.199 303.12 492.455 303.12C492.807 303.12 493.079 303.013 493.271 302.8L493.623 303.696C493.271 304.027 492.791 304.192 492.183 304.192ZM495.526 295.168C495.313 295.168 495.126 295.093 494.966 294.944C494.806 294.784 494.726 294.592 494.726 294.368C494.726 294.144 494.806 293.952 494.966 293.792C495.126 293.632 495.313 293.552 495.526 293.552C495.75 293.552 495.942 293.632 496.102 293.792C496.262 293.952 496.342 294.144 496.342 294.368C496.342 294.592 496.262 294.784 496.102 294.944C495.942 295.093 495.75 295.168 495.526 295.168ZM496.134 304H494.934V296.272H496.134V304ZM501.936 304.192C500.795 304.192 499.867 303.808 499.152 303.04C498.437 302.261 498.08 301.291 498.08 300.128C498.08 298.965 498.437 298 499.152 297.232C499.867 296.464 500.795 296.08 501.936 296.08C503.131 296.08 504.075 296.528 504.768 297.424L503.968 298.16C503.477 297.488 502.821 297.152 502 297.152C501.189 297.152 500.539 297.429 500.048 297.984C499.568 298.539 499.328 299.253 499.328 300.128C499.328 301.003 499.568 301.723 500.048 302.288C500.539 302.843 501.189 303.12 502 303.12C502.811 303.12 503.467 302.784 503.968 302.112L504.768 302.848C504.075 303.744 503.131 304.192 501.936 304.192ZM509.938 304.192C508.786 304.192 507.842 303.819 507.106 303.072C506.37 302.315 506.002 301.333 506.002 300.128C506.002 298.997 506.365 298.043 507.09 297.264C507.815 296.475 508.722 296.08 509.81 296.08C510.951 296.08 511.853 296.475 512.514 297.264C513.186 298.043 513.522 299.029 513.522 300.224V300.528H507.266C507.319 301.285 507.597 301.92 508.098 302.432C508.599 302.944 509.25 303.2 510.05 303.2C511.01 303.2 511.805 302.875 512.434 302.224L513.01 303.008C512.221 303.797 511.197 304.192 509.938 304.192ZM512.338 299.648C512.327 298.987 512.103 298.395 511.666 297.872C511.229 297.339 510.605 297.072 509.794 297.072C509.026 297.072 508.418 297.333 507.97 297.856C507.533 298.379 507.298 298.976 507.266 299.648H512.338ZM524.503 304H519.639V293.328H524.391C525.308 293.328 526.033 293.579 526.567 294.08C527.111 294.581 527.383 295.237 527.383 296.048C527.383 296.688 527.201 297.232 526.839 297.68C526.476 298.117 526.033 298.389 525.511 298.496C526.076 298.581 526.561 298.88 526.967 299.392C527.383 299.904 527.591 300.48 527.591 301.12C527.591 301.984 527.313 302.683 526.759 303.216C526.215 303.739 525.463 304 524.503 304ZM524.167 297.952C524.753 297.952 525.207 297.792 525.527 297.472C525.847 297.152 526.007 296.741 526.007 296.24C526.007 295.739 525.841 295.328 525.511 295.008C525.191 294.677 524.743 294.512 524.167 294.512H520.967V297.952H524.167ZM524.231 302.816C524.849 302.816 525.335 302.651 525.687 302.32C526.039 301.989 526.215 301.541 526.215 300.976C526.215 300.453 526.039 300.016 525.687 299.664C525.345 299.312 524.86 299.136 524.231 299.136H520.967V302.816H524.231ZM529.221 307.024L529.413 305.936C529.605 306.021 529.824 306.064 530.069 306.064C530.346 306.064 530.576 306.005 530.757 305.888C530.938 305.771 531.093 305.557 531.221 305.248L531.733 304.08L528.501 296.272H529.797L532.373 302.608L534.933 296.272H536.245L532.373 305.568C531.946 306.592 531.189 307.115 530.101 307.136C529.781 307.136 529.488 307.099 529.221 307.024ZM545.318 304H541.67V293.328H545.318C546.95 293.328 548.267 293.835 549.27 294.848C550.283 295.861 550.79 297.136 550.79 298.672C550.79 300.219 550.283 301.493 549.27 302.496C548.267 303.499 546.95 304 545.318 304ZM545.318 302.816C546.577 302.816 547.574 302.421 548.31 301.632C549.046 300.843 549.414 299.856 549.414 298.672C549.414 297.477 549.051 296.485 548.326 295.696C547.601 294.907 546.598 294.512 545.318 294.512H542.998V302.816H545.318ZM558.969 303.024C558.276 303.803 557.353 304.192 556.201 304.192C555.049 304.192 554.121 303.803 553.417 303.024C552.724 302.245 552.377 301.28 552.377 300.128C552.377 298.976 552.724 298.016 553.417 297.248C554.121 296.469 555.049 296.08 556.201 296.08C557.353 296.08 558.276 296.469 558.969 297.248C559.673 298.016 560.025 298.976 560.025 300.128C560.025 301.28 559.673 302.245 558.969 303.024ZM554.313 302.256C554.782 302.832 555.412 303.12 556.201 303.12C556.99 303.12 557.614 302.832 558.073 302.256C558.532 301.669 558.761 300.96 558.761 300.128C558.761 299.296 558.532 298.592 558.073 298.016C557.614 297.44 556.99 297.152 556.201 297.152C555.412 297.152 554.782 297.445 554.313 298.032C553.854 298.608 553.625 299.307 553.625 300.128C553.625 300.96 553.854 301.669 554.313 302.256ZM562.573 295.168C562.36 295.168 562.173 295.093 562.013 294.944C561.853 294.784 561.773 294.592 561.773 294.368C561.773 294.144 561.853 293.952 562.013 293.792C562.173 293.632 562.36 293.552 562.573 293.552C562.797 293.552 562.989 293.632 563.149 293.792C563.309 293.952 563.389 294.144 563.389 294.368C563.389 294.592 563.309 294.784 563.149 294.944C562.989 295.093 562.797 295.168 562.573 295.168ZM563.181 304H561.981V296.272H563.181V304ZM571.991 304H570.791V298.944C570.791 298.293 570.642 297.835 570.343 297.568C570.044 297.291 569.618 297.152 569.063 297.152C568.615 297.152 568.178 297.269 567.751 297.504C567.335 297.739 567.01 298.021 566.775 298.352V304H565.575V296.272H566.775V297.392C567.074 297.04 567.474 296.736 567.975 296.48C568.476 296.213 568.994 296.08 569.527 296.08C571.17 296.08 571.991 296.912 571.991 298.576V304ZM577.492 307.136C576.809 307.136 576.228 307.051 575.748 306.88C575.268 306.72 574.809 306.421 574.372 305.984L574.98 305.088C575.566 305.792 576.404 306.144 577.492 306.144C578.206 306.144 578.798 305.952 579.268 305.568C579.737 305.195 579.972 304.613 579.972 303.824V302.72C579.684 303.125 579.31 303.456 578.852 303.712C578.393 303.968 577.902 304.096 577.38 304.096C576.356 304.096 575.524 303.739 574.884 303.024C574.254 302.299 573.94 301.323 573.94 300.096C573.94 298.869 574.254 297.893 574.884 297.168C575.524 296.443 576.356 296.08 577.38 296.08C578.436 296.08 579.3 296.533 579.972 297.44V296.272H581.172V303.776C581.172 304.96 580.825 305.813 580.132 306.336C579.438 306.869 578.558 307.136 577.492 307.136ZM577.668 303.04C578.126 303.04 578.569 302.917 578.996 302.672C579.433 302.427 579.758 302.128 579.972 301.776V298.4C579.758 298.048 579.438 297.755 579.012 297.52C578.585 297.275 578.137 297.152 577.668 297.152C576.9 297.152 576.292 297.424 575.844 297.968C575.406 298.512 575.188 299.221 575.188 300.096C575.188 300.96 575.412 301.669 575.86 302.224C576.308 302.768 576.91 303.04 577.668 303.04Z" fill="#333333"/>
<rect width="144" height="34" transform="translate(412 229)" fill="white"/>
<path d="M426.896 251H423.248V240.328H426.896C428.528 240.328 429.845 240.835 430.848 241.848C431.861 242.861 432.368 244.136 432.368 245.672C432.368 247.219 431.861 248.493 430.848 249.496C429.845 250.499 428.528 251 426.896 251ZM426.896 249.816C428.155 249.816 429.152 249.421 429.888 248.632C430.624 247.843 430.992 246.856 430.992 245.672C430.992 244.477 430.629 243.485 429.904 242.696C429.179 241.907 428.176 241.512 426.896 241.512H424.576V249.816H426.896ZM434.995 242.168C434.782 242.168 434.595 242.093 434.435 241.944C434.275 241.784 434.195 241.592 434.195 241.368C434.195 241.144 434.275 240.952 434.435 240.792C434.595 240.632 434.782 240.552 434.995 240.552C435.219 240.552 435.411 240.632 435.571 240.792C435.731 240.952 435.811 241.144 435.811 241.368C435.811 241.592 435.731 241.784 435.571 241.944C435.411 242.093 435.219 242.168 434.995 242.168ZM435.603 251H434.403V243.272H435.603V251ZM440.445 251.192C439.133 251.192 438.093 250.787 437.325 249.976L437.949 249.112C438.216 249.421 438.578 249.683 439.037 249.896C439.506 250.109 439.992 250.216 440.493 250.216C441.069 250.216 441.517 250.093 441.837 249.848C442.157 249.603 442.317 249.283 442.317 248.888C442.317 248.547 442.152 248.28 441.821 248.088C441.49 247.885 441.09 247.736 440.621 247.64C440.162 247.533 439.698 247.416 439.229 247.288C438.76 247.149 438.36 246.92 438.029 246.6C437.698 246.269 437.533 245.837 437.533 245.304C437.533 244.675 437.789 244.147 438.301 243.72C438.824 243.293 439.528 243.08 440.413 243.08C441.576 243.08 442.53 243.453 443.277 244.2L442.717 245.032C442.173 244.381 441.405 244.056 440.413 244.056C439.89 244.056 439.474 244.173 439.165 244.408C438.856 244.632 438.701 244.92 438.701 245.272C438.701 245.581 438.866 245.827 439.197 246.008C439.528 246.179 439.922 246.317 440.381 246.424C440.85 246.52 441.32 246.637 441.789 246.776C442.258 246.915 442.658 247.16 442.989 247.512C443.32 247.853 443.485 248.301 443.485 248.856C443.485 249.539 443.218 250.099 442.685 250.536C442.152 250.973 441.405 251.192 440.445 251.192ZM448.842 251.192C447.701 251.192 446.773 250.808 446.058 250.04C445.344 249.261 444.986 248.291 444.986 247.128C444.986 245.965 445.344 245 446.058 244.232C446.773 243.464 447.701 243.08 448.842 243.08C450.037 243.08 450.981 243.528 451.674 244.424L450.874 245.16C450.384 244.488 449.728 244.152 448.906 244.152C448.096 244.152 447.445 244.429 446.954 244.984C446.474 245.539 446.234 246.253 446.234 247.128C446.234 248.003 446.474 248.723 446.954 249.288C447.445 249.843 448.096 250.12 448.906 250.12C449.717 250.12 450.373 249.784 450.874 249.112L451.674 249.848C450.981 250.744 450.037 251.192 448.842 251.192ZM459.772 251H458.572V249.912C458.252 250.275 457.847 250.579 457.356 250.824C456.876 251.069 456.364 251.192 455.82 251.192C454.178 251.192 453.356 250.371 453.356 248.728V243.272H454.556V248.36C454.556 249 454.7 249.453 454.988 249.72C455.287 249.987 455.719 250.12 456.284 250.12C456.732 250.12 457.164 250.008 457.58 249.784C458.007 249.56 458.338 249.283 458.572 248.952V243.272H459.772V251ZM464.617 251.192C463.305 251.192 462.265 250.787 461.497 249.976L462.121 249.112C462.387 249.421 462.75 249.683 463.209 249.896C463.678 250.109 464.163 250.216 464.665 250.216C465.241 250.216 465.689 250.093 466.009 249.848C466.329 249.603 466.489 249.283 466.489 248.888C466.489 248.547 466.323 248.28 465.993 248.088C465.662 247.885 465.262 247.736 464.793 247.64C464.334 247.533 463.87 247.416 463.401 247.288C462.931 247.149 462.531 246.92 462.201 246.6C461.87 246.269 461.705 245.837 461.705 245.304C461.705 244.675 461.961 244.147 462.473 243.72C462.995 243.293 463.699 243.08 464.585 243.08C465.747 243.08 466.702 243.453 467.449 244.2L466.889 245.032C466.345 244.381 465.577 244.056 464.585 244.056C464.062 244.056 463.646 244.173 463.337 244.408C463.027 244.632 462.873 244.92 462.873 245.272C462.873 245.581 463.038 245.827 463.369 246.008C463.699 246.179 464.094 246.317 464.553 246.424C465.022 246.52 465.491 246.637 465.961 246.776C466.43 246.915 466.83 247.16 467.161 247.512C467.491 247.853 467.657 248.301 467.657 248.856C467.657 249.539 467.39 250.099 466.857 250.536C466.323 250.973 465.577 251.192 464.617 251.192ZM472.054 251.192C470.742 251.192 469.702 250.787 468.934 249.976L469.558 249.112C469.825 249.421 470.188 249.683 470.646 249.896C471.116 250.109 471.601 250.216 472.102 250.216C472.678 250.216 473.126 250.093 473.446 249.848C473.766 249.603 473.926 249.283 473.926 248.888C473.926 248.547 473.761 248.28 473.43 248.088C473.1 247.885 472.7 247.736 472.23 247.64C471.772 247.533 471.308 247.416 470.838 247.288C470.369 247.149 469.969 246.92 469.638 246.6C469.308 246.269 469.142 245.837 469.142 245.304C469.142 244.675 469.398 244.147 469.91 243.72C470.433 243.293 471.137 243.08 472.022 243.08C473.185 243.08 474.14 243.453 474.886 244.2L474.326 245.032C473.782 244.381 473.014 244.056 472.022 244.056C471.5 244.056 471.084 244.173 470.774 244.408C470.465 244.632 470.31 244.92 470.31 245.272C470.31 245.581 470.476 245.827 470.806 246.008C471.137 246.179 471.532 246.317 471.99 246.424C472.46 246.52 472.929 246.637 473.398 246.776C473.868 246.915 474.268 247.16 474.598 247.512C474.929 247.853 475.094 248.301 475.094 248.856C475.094 249.539 474.828 250.099 474.294 250.536C473.761 250.973 473.014 251.192 472.054 251.192ZM477.636 242.168C477.422 242.168 477.236 242.093 477.076 241.944C476.916 241.784 476.836 241.592 476.836 241.368C476.836 241.144 476.916 240.952 477.076 240.792C477.236 240.632 477.422 240.552 477.636 240.552C477.86 240.552 478.052 240.632 478.212 240.792C478.372 240.952 478.452 241.144 478.452 241.368C478.452 241.592 478.372 241.784 478.212 241.944C478.052 242.093 477.86 242.168 477.636 242.168ZM478.244 251H477.044V243.272H478.244V251ZM486.782 250.024C486.088 250.803 485.166 251.192 484.014 251.192C482.862 251.192 481.934 250.803 481.23 250.024C480.536 249.245 480.19 248.28 480.19 247.128C480.19 245.976 480.536 245.016 481.23 244.248C481.934 243.469 482.862 243.08 484.014 243.08C485.166 243.08 486.088 243.469 486.782 244.248C487.486 245.016 487.838 245.976 487.838 247.128C487.838 248.28 487.486 249.245 486.782 250.024ZM482.126 249.256C482.595 249.832 483.224 250.12 484.014 250.12C484.803 250.12 485.427 249.832 485.886 249.256C486.344 248.669 486.574 247.96 486.574 247.128C486.574 246.296 486.344 245.592 485.886 245.016C485.427 244.44 484.803 244.152 484.014 244.152C483.224 244.152 482.595 244.445 482.126 245.032C481.667 245.608 481.438 246.307 481.438 247.128C481.438 247.96 481.667 248.669 482.126 249.256ZM496.21 251H495.01V245.944C495.01 245.293 494.86 244.835 494.562 244.568C494.263 244.291 493.836 244.152 493.282 244.152C492.834 244.152 492.396 244.269 491.97 244.504C491.554 244.739 491.228 245.021 490.994 245.352V251H489.794V243.272H490.994V244.392C491.292 244.04 491.692 243.736 492.194 243.48C492.695 243.213 493.212 243.08 493.746 243.08C495.388 243.08 496.21 243.912 496.21 245.576V251ZM507.835 251.208C506.289 251.208 504.987 250.696 503.931 249.672C502.875 248.637 502.347 247.304 502.347 245.672C502.347 244.04 502.875 242.712 503.931 241.688C504.987 240.664 506.289 240.152 507.835 240.152C509.521 240.152 510.902 240.819 511.979 242.152L510.923 242.808C510.582 242.36 510.134 242.003 509.579 241.736C509.035 241.469 508.454 241.336 507.835 241.336C506.662 241.336 505.681 241.747 504.891 242.568C504.113 243.379 503.723 244.413 503.723 245.672C503.723 246.931 504.113 247.971 504.891 248.792C505.681 249.613 506.662 250.024 507.835 250.024C508.422 250.024 508.966 249.912 509.467 249.688C509.979 249.453 510.39 249.181 510.699 248.872V246.696H507.035V245.512H512.027V249.368C510.929 250.595 509.531 251.208 507.835 251.208ZM515.338 251H514.138V243.272H515.338V244.52C516.052 243.581 516.911 243.112 517.914 243.112V244.344C517.764 244.312 517.604 244.296 517.434 244.296C517.071 244.296 516.676 244.424 516.25 244.68C515.823 244.936 515.519 245.219 515.338 245.528V251ZM525.563 250.024C524.869 250.803 523.947 251.192 522.795 251.192C521.643 251.192 520.715 250.803 520.011 250.024C519.317 249.245 518.971 248.28 518.971 247.128C518.971 245.976 519.317 245.016 520.011 244.248C520.715 243.469 521.643 243.08 522.795 243.08C523.947 243.08 524.869 243.469 525.563 244.248C526.267 245.016 526.619 245.976 526.619 247.128C526.619 248.28 526.267 249.245 525.563 250.024ZM520.907 249.256C521.376 249.832 522.005 250.12 522.795 250.12C523.584 250.12 524.208 249.832 524.667 249.256C525.125 248.669 525.355 247.96 525.355 247.128C525.355 246.296 525.125 245.592 524.667 245.016C524.208 244.44 523.584 244.152 522.795 244.152C522.005 244.152 521.376 244.445 520.907 245.032C520.448 245.608 520.219 246.307 520.219 247.128C520.219 247.96 520.448 248.669 520.907 249.256ZM534.991 251H533.791V249.912C533.471 250.275 533.066 250.579 532.575 250.824C532.095 251.069 531.583 251.192 531.039 251.192C529.396 251.192 528.575 250.371 528.575 248.728V243.272H529.775V248.36C529.775 249 529.919 249.453 530.207 249.72C530.506 249.987 530.938 250.12 531.503 250.12C531.951 250.12 532.383 250.008 532.799 249.784C533.226 249.56 533.556 249.283 533.791 248.952V243.272H534.991V251ZM541.196 251.192C540.108 251.192 539.238 250.739 538.588 249.832V253.944H537.388V243.272H538.588V244.424C538.876 244.019 539.249 243.693 539.708 243.448C540.166 243.203 540.662 243.08 541.196 243.08C542.22 243.08 543.046 243.448 543.676 244.184C544.316 244.909 544.635 245.891 544.635 247.128C544.635 248.365 544.316 249.352 543.676 250.088C543.046 250.824 542.22 251.192 541.196 251.192ZM540.891 250.12C541.649 250.12 542.252 249.843 542.7 249.288C543.148 248.723 543.372 248.003 543.372 247.128C543.372 246.253 543.148 245.539 542.7 244.984C542.252 244.429 541.649 244.152 540.891 244.152C540.433 244.152 539.985 244.275 539.548 244.52C539.121 244.755 538.801 245.043 538.588 245.384V248.872C538.801 249.224 539.121 249.523 539.548 249.768C539.985 250.003 540.433 250.12 540.891 250.12Z" fill="#333333"/>
<rect width="124" height="34" transform="translate(375 175)" fill="white"/>
<path d="M389.896 197H386.248V186.328H389.896C391.528 186.328 392.845 186.835 393.848 187.848C394.861 188.861 395.368 190.136 395.368 191.672C395.368 193.219 394.861 194.493 393.848 195.496C392.845 196.499 391.528 197 389.896 197ZM389.896 195.816C391.155 195.816 392.152 195.421 392.888 194.632C393.624 193.843 393.992 192.856 393.992 191.672C393.992 190.477 393.629 189.485 392.904 188.696C392.179 187.907 391.176 187.512 389.896 187.512H387.576V195.816H389.896ZM400.891 197.192C399.739 197.192 398.795 196.819 398.059 196.072C397.323 195.315 396.955 194.333 396.955 193.128C396.955 191.997 397.318 191.043 398.043 190.264C398.768 189.475 399.675 189.08 400.763 189.08C401.904 189.08 402.806 189.475 403.467 190.264C404.139 191.043 404.475 192.029 404.475 193.224V193.528H398.219C398.272 194.285 398.55 194.92 399.051 195.432C399.552 195.944 400.203 196.2 401.003 196.2C401.963 196.2 402.758 195.875 403.387 195.224L403.963 196.008C403.174 196.797 402.15 197.192 400.891 197.192ZM403.291 192.648C403.28 191.987 403.056 191.395 402.619 190.872C402.182 190.339 401.558 190.072 400.747 190.072C399.979 190.072 399.371 190.333 398.923 190.856C398.486 191.379 398.251 191.976 398.219 192.648H403.291ZM416.947 197H415.747V191.752C415.747 190.685 415.272 190.152 414.323 190.152C413.939 190.152 413.555 190.269 413.171 190.504C412.787 190.739 412.488 191.016 412.275 191.336V197H411.075V191.752C411.075 190.685 410.6 190.152 409.651 190.152C409.277 190.152 408.899 190.269 408.515 190.504C408.141 190.739 407.843 191.021 407.619 191.352V197H406.419V189.272H407.619V190.392C407.811 190.093 408.147 189.8 408.627 189.512C409.107 189.224 409.603 189.08 410.115 189.08C410.68 189.08 411.139 189.213 411.491 189.48C411.843 189.747 412.077 190.093 412.195 190.52C412.429 190.136 412.787 189.8 413.267 189.512C413.747 189.224 414.253 189.08 414.787 189.08C416.227 189.08 416.947 189.859 416.947 191.416V197ZM425.485 196.024C424.791 196.803 423.869 197.192 422.717 197.192C421.565 197.192 420.637 196.803 419.933 196.024C419.239 195.245 418.893 194.28 418.893 193.128C418.893 191.976 419.239 191.016 419.933 190.248C420.637 189.469 421.565 189.08 422.717 189.08C423.869 189.08 424.791 189.469 425.485 190.248C426.189 191.016 426.541 191.976 426.541 193.128C426.541 194.28 426.189 195.245 425.485 196.024ZM420.829 195.256C421.298 195.832 421.927 196.12 422.717 196.12C423.506 196.12 424.13 195.832 424.589 195.256C425.047 194.669 425.277 193.96 425.277 193.128C425.277 192.296 425.047 191.592 424.589 191.016C424.13 190.44 423.506 190.152 422.717 190.152C421.927 190.152 421.298 190.445 420.829 191.032C420.37 191.608 420.141 192.307 420.141 193.128C420.141 193.96 420.37 194.669 420.829 195.256ZM434.913 197H433.713V191.944C433.713 191.293 433.564 190.835 433.265 190.568C432.966 190.291 432.54 190.152 431.985 190.152C431.537 190.152 431.1 190.269 430.673 190.504C430.257 190.739 429.932 191.021 429.697 191.352V197H428.497V189.272H429.697V190.392C429.996 190.04 430.396 189.736 430.897 189.48C431.398 189.213 431.916 189.08 432.449 189.08C434.092 189.08 434.913 189.912 434.913 191.576V197ZM439.757 197.192C438.445 197.192 437.405 196.787 436.637 195.976L437.261 195.112C437.528 195.421 437.891 195.683 438.349 195.896C438.819 196.109 439.304 196.216 439.805 196.216C440.381 196.216 440.829 196.093 441.149 195.848C441.469 195.603 441.629 195.283 441.629 194.888C441.629 194.547 441.464 194.28 441.133 194.088C440.803 193.885 440.403 193.736 439.933 193.64C439.475 193.533 439.011 193.416 438.541 193.288C438.072 193.149 437.672 192.92 437.341 192.6C437.011 192.269 436.845 191.837 436.845 191.304C436.845 190.675 437.101 190.147 437.613 189.72C438.136 189.293 438.84 189.08 439.725 189.08C440.888 189.08 441.843 189.453 442.589 190.2L442.029 191.032C441.485 190.381 440.717 190.056 439.725 190.056C439.203 190.056 438.787 190.173 438.477 190.408C438.168 190.632 438.013 190.92 438.013 191.272C438.013 191.581 438.179 191.827 438.509 192.008C438.84 192.179 439.235 192.317 439.693 192.424C440.163 192.52 440.632 192.637 441.101 192.776C441.571 192.915 441.971 193.16 442.301 193.512C442.632 193.853 442.797 194.301 442.797 194.856C442.797 195.539 442.531 196.099 441.997 196.536C441.464 196.973 440.717 197.192 439.757 197.192ZM446.699 197.192C446.134 197.192 445.707 197.037 445.419 196.728C445.131 196.419 444.987 195.971 444.987 195.384V190.328H443.707V189.272H444.987V187.16H446.187V189.272H447.755V190.328H446.187V195.128C446.187 195.427 446.251 195.667 446.379 195.848C446.518 196.029 446.715 196.12 446.971 196.12C447.323 196.12 447.595 196.013 447.787 195.8L448.139 196.696C447.787 197.027 447.307 197.192 446.699 197.192ZM450.65 197H449.45V189.272H450.65V190.52C451.365 189.581 452.223 189.112 453.226 189.112V190.344C453.077 190.312 452.917 190.296 452.746 190.296C452.383 190.296 451.989 190.424 451.562 190.68C451.135 190.936 450.831 191.219 450.65 191.528V197ZM460.763 197H459.563V196.12C458.913 196.835 458.059 197.192 457.003 197.192C456.289 197.192 455.659 196.963 455.115 196.504C454.571 196.045 454.299 195.421 454.299 194.632C454.299 193.821 454.566 193.197 455.099 192.76C455.643 192.312 456.278 192.088 457.003 192.088C458.102 192.088 458.955 192.44 459.563 193.144V191.752C459.563 191.24 459.382 190.84 459.019 190.552C458.657 190.264 458.187 190.12 457.611 190.12C456.705 190.12 455.915 190.477 455.243 191.192L454.683 190.36C455.505 189.507 456.534 189.08 457.771 189.08C458.657 189.08 459.377 189.293 459.931 189.72C460.486 190.147 460.763 190.803 460.763 191.688V197ZM457.435 196.328C458.395 196.328 459.105 196.008 459.563 195.368V193.912C459.105 193.272 458.395 192.952 457.435 192.952C456.881 192.952 456.422 193.112 456.059 193.432C455.707 193.741 455.531 194.147 455.531 194.648C455.531 195.139 455.707 195.544 456.059 195.864C456.422 196.173 456.881 196.328 457.435 196.328ZM465.121 197.192C464.555 197.192 464.129 197.037 463.841 196.728C463.553 196.419 463.409 195.971 463.409 195.384V190.328H462.129V189.272H463.409V187.16H464.609V189.272H466.177V190.328H464.609V195.128C464.609 195.427 464.673 195.667 464.801 195.848C464.939 196.029 465.137 196.12 465.393 196.12C465.745 196.12 466.017 196.013 466.209 195.8L466.561 196.696C466.209 197.027 465.729 197.192 465.121 197.192ZM468.464 188.168C468.251 188.168 468.064 188.093 467.904 187.944C467.744 187.784 467.664 187.592 467.664 187.368C467.664 187.144 467.744 186.952 467.904 186.792C468.064 186.632 468.251 186.552 468.464 186.552C468.688 186.552 468.88 186.632 469.04 186.792C469.2 186.952 469.28 187.144 469.28 187.368C469.28 187.592 469.2 187.784 469.04 187.944C468.88 188.093 468.688 188.168 468.464 188.168ZM469.072 197H467.872V189.272H469.072V197ZM477.61 196.024C476.916 196.803 475.994 197.192 474.842 197.192C473.69 197.192 472.762 196.803 472.058 196.024C471.364 195.245 471.018 194.28 471.018 193.128C471.018 191.976 471.364 191.016 472.058 190.248C472.762 189.469 473.69 189.08 474.842 189.08C475.994 189.08 476.916 189.469 477.61 190.248C478.314 191.016 478.666 191.976 478.666 193.128C478.666 194.28 478.314 195.245 477.61 196.024ZM472.954 195.256C473.423 195.832 474.052 196.12 474.842 196.12C475.631 196.12 476.255 195.832 476.714 195.256C477.172 194.669 477.402 193.96 477.402 193.128C477.402 192.296 477.172 191.592 476.714 191.016C476.255 190.44 475.631 190.152 474.842 190.152C474.052 190.152 473.423 190.445 472.954 191.032C472.495 191.608 472.266 192.307 472.266 193.128C472.266 193.96 472.495 194.669 472.954 195.256ZM487.038 197H485.838V191.944C485.838 191.293 485.689 190.835 485.39 190.568C485.091 190.291 484.665 190.152 484.11 190.152C483.662 190.152 483.225 190.269 482.798 190.504C482.382 190.739 482.057 191.021 481.822 191.352V197H480.622V189.272H481.822V190.392C482.121 190.04 482.521 189.736 483.022 189.48C483.523 189.213 484.041 189.08 484.574 189.08C486.217 189.08 487.038 189.912 487.038 191.576V197Z" fill="#333333"/>
<rect width="108" height="34" transform="translate(338 120)" fill="white"/>
<path d="M358.384 142H356.864L355.92 139.632H350.608L349.664 142H348.144L352.432 131.328H354.08L358.384 142ZM355.52 138.448L353.264 132.704L350.992 138.448H355.52ZM365.96 142H364.76V140.912C364.44 141.275 364.034 141.579 363.544 141.824C363.064 142.069 362.552 142.192 362.008 142.192C360.365 142.192 359.544 141.371 359.544 139.728V134.272H360.744V139.36C360.744 140 360.888 140.453 361.176 140.72C361.474 140.987 361.906 141.12 362.472 141.12C362.92 141.12 363.352 141.008 363.768 140.784C364.194 140.56 364.525 140.283 364.76 139.952V134.272H365.96V142ZM375.156 142H373.956V140.848C373.295 141.744 372.426 142.192 371.348 142.192C370.324 142.192 369.492 141.829 368.852 141.104C368.223 140.368 367.908 139.381 367.908 138.144C367.908 136.917 368.223 135.936 368.852 135.2C369.492 134.453 370.324 134.08 371.348 134.08C372.415 134.08 373.284 134.533 373.956 135.44V131.328H375.156V142ZM371.636 141.12C372.106 141.12 372.554 141.003 372.98 140.768C373.407 140.533 373.732 140.245 373.956 139.904V136.4C373.732 136.048 373.402 135.755 372.964 135.52C372.538 135.275 372.095 135.152 371.636 135.152C370.879 135.152 370.276 135.435 369.828 136C369.38 136.555 369.156 137.269 369.156 138.144C369.156 139.019 369.38 139.733 369.828 140.288C370.276 140.843 370.879 141.12 371.636 141.12ZM378.151 133.168C377.938 133.168 377.751 133.093 377.591 132.944C377.431 132.784 377.351 132.592 377.351 132.368C377.351 132.144 377.431 131.952 377.591 131.792C377.751 131.632 377.938 131.552 378.151 131.552C378.375 131.552 378.567 131.632 378.727 131.792C378.887 131.952 378.967 132.144 378.967 132.368C378.967 132.592 378.887 132.784 378.727 132.944C378.567 133.093 378.375 133.168 378.151 133.168ZM378.759 142H377.559V134.272H378.759V142ZM387.297 141.024C386.604 141.803 385.681 142.192 384.529 142.192C383.377 142.192 382.449 141.803 381.745 141.024C381.052 140.245 380.705 139.28 380.705 138.128C380.705 136.976 381.052 136.016 381.745 135.248C382.449 134.469 383.377 134.08 384.529 134.08C385.681 134.08 386.604 134.469 387.297 135.248C388.001 136.016 388.353 136.976 388.353 138.128C388.353 139.28 388.001 140.245 387.297 141.024ZM382.641 140.256C383.11 140.832 383.74 141.12 384.529 141.12C385.318 141.12 385.942 140.832 386.401 140.256C386.86 139.669 387.089 138.96 387.089 138.128C387.089 137.296 386.86 136.592 386.401 136.016C385.942 135.44 385.318 135.152 384.529 135.152C383.74 135.152 383.11 135.445 382.641 136.032C382.182 136.608 381.953 137.307 381.953 138.128C381.953 138.96 382.182 139.669 382.641 140.256ZM399.314 142H397.666L393.378 131.328H394.898L398.498 140.544L402.098 131.328H403.618L399.314 142ZM405.558 133.168C405.344 133.168 405.158 133.093 404.998 132.944C404.838 132.784 404.758 132.592 404.758 132.368C404.758 132.144 404.838 131.952 404.998 131.792C405.158 131.632 405.344 131.552 405.558 131.552C405.782 131.552 405.974 131.632 406.134 131.792C406.294 131.952 406.374 132.144 406.374 132.368C406.374 132.592 406.294 132.784 406.134 132.944C405.974 133.093 405.782 133.168 405.558 133.168ZM406.166 142H404.966V134.272H406.166V142ZM411.007 142.192C409.695 142.192 408.655 141.787 407.887 140.976L408.511 140.112C408.778 140.421 409.141 140.683 409.599 140.896C410.069 141.109 410.554 141.216 411.055 141.216C411.631 141.216 412.079 141.093 412.399 140.848C412.719 140.603 412.879 140.283 412.879 139.888C412.879 139.547 412.714 139.28 412.383 139.088C412.053 138.885 411.653 138.736 411.183 138.64C410.725 138.533 410.261 138.416 409.791 138.288C409.322 138.149 408.922 137.92 408.591 137.6C408.261 137.269 408.095 136.837 408.095 136.304C408.095 135.675 408.351 135.147 408.863 134.72C409.386 134.293 410.09 134.08 410.975 134.08C412.138 134.08 413.093 134.453 413.839 135.2L413.279 136.032C412.735 135.381 411.967 135.056 410.975 135.056C410.453 135.056 410.037 135.173 409.727 135.408C409.418 135.632 409.263 135.92 409.263 136.272C409.263 136.581 409.429 136.827 409.759 137.008C410.09 137.179 410.485 137.317 410.943 137.424C411.413 137.52 411.882 137.637 412.351 137.776C412.821 137.915 413.221 138.16 413.551 138.512C413.882 138.853 414.047 139.301 414.047 139.856C414.047 140.539 413.781 141.099 413.247 141.536C412.714 141.973 411.967 142.192 411.007 142.192ZM422.413 142H421.213V140.912C420.893 141.275 420.488 141.579 419.997 141.824C419.517 142.069 419.005 142.192 418.461 142.192C416.818 142.192 415.997 141.371 415.997 139.728V134.272H417.197V139.36C417.197 140 417.341 140.453 417.629 140.72C417.928 140.987 418.36 141.12 418.925 141.12C419.373 141.12 419.805 141.008 420.221 140.784C420.648 140.56 420.978 140.283 421.213 139.952V134.272H422.413V142ZM430.841 142H429.641V141.12C428.991 141.835 428.137 142.192 427.081 142.192C426.367 142.192 425.737 141.963 425.193 141.504C424.649 141.045 424.377 140.421 424.377 139.632C424.377 138.821 424.644 138.197 425.177 137.76C425.721 137.312 426.356 137.088 427.081 137.088C428.18 137.088 429.033 137.44 429.641 138.144V136.752C429.641 136.24 429.46 135.84 429.097 135.552C428.735 135.264 428.265 135.12 427.689 135.12C426.783 135.12 425.993 135.477 425.321 136.192L424.761 135.36C425.583 134.507 426.612 134.08 427.849 134.08C428.735 134.08 429.455 134.293 430.009 134.72C430.564 135.147 430.841 135.803 430.841 136.688V142ZM427.513 141.328C428.473 141.328 429.183 141.008 429.641 140.368V138.912C429.183 138.272 428.473 137.952 427.513 137.952C426.959 137.952 426.5 138.112 426.137 138.432C425.785 138.741 425.609 139.147 425.609 139.648C425.609 140.139 425.785 140.544 426.137 140.864C426.5 141.173 426.959 141.328 427.513 141.328ZM434.447 142H433.247V131.328H434.447V142Z" fill="#333333"/>
<rect width="78" height="34" transform="translate(302 66)" fill="white"/>
<path d="M320.992 88H319.424L316.704 83.76H314.576V88H313.248V77.328H317.536C318.528 77.328 319.333 77.6213 319.952 78.208C320.571 78.7947 320.88 79.5733 320.88 80.544C320.88 81.4613 320.613 82.192 320.08 82.736C319.547 83.28 318.891 83.584 318.112 83.648L320.992 88ZM317.376 82.592C318.005 82.592 318.517 82.4 318.912 82.016C319.307 81.632 319.504 81.1413 319.504 80.544C319.504 79.9467 319.307 79.4613 318.912 79.088C318.517 78.704 318.005 78.512 317.376 78.512H314.576V82.592H317.376ZM325.938 88.192C324.786 88.192 323.842 87.8187 323.106 87.072C322.37 86.3147 322.002 85.3333 322.002 84.128C322.002 82.9973 322.365 82.0427 323.09 81.264C323.815 80.4747 324.722 80.08 325.81 80.08C326.951 80.08 327.853 80.4747 328.514 81.264C329.186 82.0427 329.522 83.0293 329.522 84.224V84.528H323.266C323.319 85.2853 323.597 85.92 324.098 86.432C324.599 86.944 325.25 87.2 326.05 87.2C327.01 87.2 327.805 86.8747 328.434 86.224L329.01 87.008C328.221 87.7973 327.197 88.192 325.938 88.192ZM328.338 83.648C328.327 82.9867 328.103 82.3947 327.666 81.872C327.229 81.3387 326.605 81.072 325.794 81.072C325.026 81.072 324.418 81.3333 323.97 81.856C323.533 82.3787 323.298 82.976 323.266 83.648H328.338ZM337.498 88H336.298V87.12C335.647 87.8347 334.794 88.192 333.738 88.192C333.023 88.192 332.394 87.9627 331.85 87.504C331.306 87.0453 331.034 86.4213 331.034 85.632C331.034 84.8213 331.3 84.1973 331.834 83.76C332.378 83.312 333.012 83.088 333.738 83.088C334.836 83.088 335.69 83.44 336.298 84.144V82.752C336.298 82.24 336.116 81.84 335.754 81.552C335.391 81.264 334.922 81.12 334.346 81.12C333.439 81.12 332.65 81.4773 331.978 82.192L331.418 81.36C332.239 80.5067 333.268 80.08 334.506 80.08C335.391 80.08 336.111 80.2933 336.666 80.72C337.22 81.1467 337.498 81.8027 337.498 82.688V88ZM334.17 87.328C335.13 87.328 335.839 87.008 336.298 86.368V84.912C335.839 84.272 335.13 83.952 334.17 83.952C333.615 83.952 333.156 84.112 332.794 84.432C332.442 84.7413 332.266 85.1467 332.266 85.648C332.266 86.1387 332.442 86.544 332.794 86.864C333.156 87.1733 333.615 87.328 334.17 87.328ZM346.703 88H345.503V86.848C344.842 87.744 343.972 88.192 342.895 88.192C341.871 88.192 341.039 87.8293 340.399 87.104C339.77 86.368 339.455 85.3813 339.455 84.144C339.455 82.9173 339.77 81.936 340.399 81.2C341.039 80.4533 341.871 80.08 342.895 80.08C343.962 80.08 344.831 80.5333 345.503 81.44V77.328H346.703V88ZM343.183 87.12C343.652 87.12 344.1 87.0027 344.527 86.768C344.954 86.5333 345.279 86.2453 345.503 85.904V82.4C345.279 82.048 344.948 81.7547 344.511 81.52C344.084 81.2747 343.642 81.152 343.183 81.152C342.426 81.152 341.823 81.4347 341.375 82C340.927 82.5547 340.703 83.2693 340.703 84.144C340.703 85.0187 340.927 85.7333 341.375 86.288C341.823 86.8427 342.426 87.12 343.183 87.12ZM349.698 79.168C349.485 79.168 349.298 79.0933 349.138 78.944C348.978 78.784 348.898 78.592 348.898 78.368C348.898 78.144 348.978 77.952 349.138 77.792C349.298 77.632 349.485 77.552 349.698 77.552C349.922 77.552 350.114 77.632 350.274 77.792C350.434 77.952 350.514 78.144 350.514 78.368C350.514 78.592 350.434 78.784 350.274 78.944C350.114 79.0933 349.922 79.168 349.698 79.168ZM350.306 88H349.106V80.272H350.306V88ZM359.116 88H357.916V82.944C357.916 82.2933 357.767 81.8347 357.468 81.568C357.169 81.2907 356.743 81.152 356.188 81.152C355.74 81.152 355.303 81.2693 354.876 81.504C354.46 81.7387 354.135 82.0213 353.9 82.352V88H352.7V80.272H353.9V81.392C354.199 81.04 354.599 80.736 355.1 80.48C355.601 80.2133 356.119 80.08 356.652 80.08C358.295 80.08 359.116 80.912 359.116 82.576V88ZM364.617 91.136C363.934 91.136 363.353 91.0507 362.873 90.88C362.393 90.72 361.934 90.4213 361.497 89.984L362.105 89.088C362.691 89.792 363.529 90.144 364.617 90.144C365.331 90.144 365.923 89.952 366.393 89.568C366.862 89.1947 367.097 88.6133 367.097 87.824V86.72C366.809 87.1253 366.435 87.456 365.977 87.712C365.518 87.968 365.027 88.096 364.505 88.096C363.481 88.096 362.649 87.7387 362.009 87.024C361.379 86.2987 361.065 85.3227 361.065 84.096C361.065 82.8693 361.379 81.8933 362.009 81.168C362.649 80.4427 363.481 80.08 364.505 80.08C365.561 80.08 366.425 80.5333 367.097 81.44V80.272H368.297V87.776C368.297 88.96 367.95 89.8133 367.257 90.336C366.563 90.8693 365.683 91.136 364.617 91.136ZM364.793 87.04C365.251 87.04 365.694 86.9173 366.121 86.672C366.558 86.4267 366.883 86.128 367.097 85.776V82.4C366.883 82.048 366.563 81.7547 366.137 81.52C365.71 81.2747 365.262 81.152 364.793 81.152C364.025 81.152 363.417 81.424 362.969 81.968C362.531 82.512 362.312 83.2213 362.312 84.096C362.312 84.96 362.537 85.6693 362.985 86.224C363.433 86.768 364.035 87.04 364.793 87.04Z" fill="#333333"/>
<rect width="135" height="34" transform="translate(484 336)" fill="white"/>
<path d="M499.216 358H497.888V348.512H494.512V347.328H502.608V348.512H499.216V358ZM505.969 358.192C504.817 358.192 503.873 357.819 503.137 357.072C502.401 356.315 502.033 355.333 502.033 354.128C502.033 352.997 502.396 352.043 503.121 351.264C503.847 350.475 504.753 350.08 505.841 350.08C506.983 350.08 507.884 350.475 508.545 351.264C509.217 352.043 509.553 353.029 509.553 354.224V354.528H503.297C503.351 355.285 503.628 355.92 504.129 356.432C504.631 356.944 505.281 357.2 506.081 357.2C507.041 357.2 507.836 356.875 508.465 356.224L509.041 357.008C508.252 357.797 507.228 358.192 505.969 358.192ZM508.369 353.648C508.359 352.987 508.135 352.395 507.697 351.872C507.26 351.339 506.636 351.072 505.825 351.072C505.057 351.072 504.449 351.333 504.001 351.856C503.564 352.379 503.329 352.976 503.297 353.648H508.369ZM517.529 358H516.329V357.12C515.678 357.835 514.825 358.192 513.769 358.192C513.054 358.192 512.425 357.963 511.881 357.504C511.337 357.045 511.065 356.421 511.065 355.632C511.065 354.821 511.332 354.197 511.865 353.76C512.409 353.312 513.044 353.088 513.769 353.088C514.868 353.088 515.721 353.44 516.329 354.144V352.752C516.329 352.24 516.148 351.84 515.785 351.552C515.422 351.264 514.953 351.12 514.377 351.12C513.47 351.12 512.681 351.477 512.009 352.192L511.449 351.36C512.27 350.507 513.3 350.08 514.537 350.08C515.422 350.08 516.142 350.293 516.697 350.72C517.252 351.147 517.529 351.803 517.529 352.688V358ZM514.201 357.328C515.161 357.328 515.87 357.008 516.329 356.368V354.912C515.87 354.272 515.161 353.952 514.201 353.952C513.646 353.952 513.188 354.112 512.825 354.432C512.473 354.741 512.297 355.147 512.297 355.648C512.297 356.139 512.473 356.544 512.825 356.864C513.188 357.173 513.646 357.328 514.201 357.328ZM523.342 358.192C522.201 358.192 521.273 357.808 520.558 357.04C519.844 356.261 519.486 355.291 519.486 354.128C519.486 352.965 519.844 352 520.558 351.232C521.273 350.464 522.201 350.08 523.342 350.08C524.537 350.08 525.481 350.528 526.174 351.424L525.374 352.16C524.884 351.488 524.228 351.152 523.406 351.152C522.596 351.152 521.945 351.429 521.454 351.984C520.974 352.539 520.734 353.253 520.734 354.128C520.734 355.003 520.974 355.723 521.454 356.288C521.945 356.843 522.596 357.12 523.406 357.12C524.217 357.12 524.873 356.784 525.374 356.112L526.174 356.848C525.481 357.744 524.537 358.192 523.342 358.192ZM534.288 358H533.088V352.912C533.088 352.272 532.939 351.819 532.64 351.552C532.342 351.285 531.91 351.152 531.344 351.152C530.907 351.152 530.475 351.269 530.048 351.504C529.632 351.739 529.302 352.021 529.056 352.352V358H527.856V347.328H529.056V351.392C529.355 351.04 529.755 350.736 530.256 350.48C530.758 350.213 531.28 350.08 531.824 350.08C533.467 350.08 534.288 350.901 534.288 352.544V358ZM537.276 349.168C537.063 349.168 536.876 349.093 536.716 348.944C536.556 348.784 536.476 348.592 536.476 348.368C536.476 348.144 536.556 347.952 536.716 347.792C536.876 347.632 537.063 347.552 537.276 347.552C537.5 347.552 537.692 347.632 537.852 347.792C538.012 347.952 538.092 348.144 538.092 348.368C538.092 348.592 538.012 348.784 537.852 348.944C537.692 349.093 537.5 349.168 537.276 349.168ZM537.884 358H536.684V350.272H537.884V358ZM546.694 358H545.494V352.944C545.494 352.293 545.345 351.835 545.046 351.568C544.747 351.291 544.321 351.152 543.766 351.152C543.318 351.152 542.881 351.269 542.454 351.504C542.038 351.739 541.713 352.021 541.478 352.352V358H540.278V350.272H541.478V351.392C541.777 351.04 542.177 350.736 542.678 350.48C543.179 350.213 543.697 350.08 544.23 350.08C545.873 350.08 546.694 350.912 546.694 352.576V358ZM552.195 361.136C551.512 361.136 550.931 361.051 550.451 360.88C549.971 360.72 549.512 360.421 549.075 359.984L549.683 359.088C550.269 359.792 551.107 360.144 552.195 360.144C552.909 360.144 553.501 359.952 553.971 359.568C554.44 359.195 554.675 358.613 554.675 357.824V356.72C554.387 357.125 554.013 357.456 553.555 357.712C553.096 357.968 552.605 358.096 552.083 358.096C551.059 358.096 550.227 357.739 549.587 357.024C548.957 356.299 548.643 355.323 548.643 354.096C548.643 352.869 548.957 351.893 549.587 351.168C550.227 350.443 551.059 350.08 552.083 350.08C553.139 350.08 554.003 350.533 554.675 351.44V350.272H555.875V357.776C555.875 358.96 555.528 359.813 554.835 360.336C554.141 360.869 553.261 361.136 552.195 361.136ZM552.371 357.04C552.829 357.04 553.272 356.917 553.699 356.672C554.136 356.427 554.461 356.128 554.675 355.776V352.4C554.461 352.048 554.141 351.755 553.715 351.52C553.288 351.275 552.84 351.152 552.371 351.152C551.603 351.152 550.995 351.424 550.547 351.968C550.109 352.512 549.891 353.221 549.891 354.096C549.891 354.96 550.115 355.669 550.563 356.224C551.011 356.768 551.613 357.04 552.371 357.04ZM567.315 358.192C565.747 358.192 564.472 357.669 563.491 356.624C562.51 355.579 562.019 354.261 562.019 352.672C562.019 351.083 562.51 349.765 563.491 348.72C564.472 347.675 565.747 347.152 567.315 347.152C568.872 347.152 570.142 347.675 571.123 348.72C572.115 349.765 572.611 351.083 572.611 352.672C572.611 354.261 572.115 355.579 571.123 356.624C570.142 357.669 568.872 358.192 567.315 358.192ZM567.315 357.008C568.488 357.008 569.432 356.603 570.147 355.792C570.872 354.971 571.235 353.931 571.235 352.672C571.235 351.403 570.872 350.363 570.147 349.552C569.432 348.741 568.488 348.336 567.315 348.336C566.131 348.336 565.182 348.741 564.467 349.552C563.752 350.363 563.395 351.403 563.395 352.672C563.395 353.931 563.752 354.971 564.467 355.792C565.182 356.603 566.131 357.008 567.315 357.008ZM576.59 358.192C576.024 358.192 575.598 358.037 575.31 357.728C575.022 357.419 574.878 356.971 574.878 356.384V351.328H573.598V350.272H574.878V348.16H576.078V350.272H577.646V351.328H576.078V356.128C576.078 356.427 576.142 356.667 576.27 356.848C576.408 357.029 576.606 357.12 576.862 357.12C577.214 357.12 577.486 357.013 577.678 356.8L578.03 357.696C577.678 358.027 577.198 358.192 576.59 358.192ZM585.773 358H584.573V352.912C584.573 352.272 584.423 351.819 584.125 351.552C583.826 351.285 583.394 351.152 582.829 351.152C582.391 351.152 581.959 351.269 581.533 351.504C581.117 351.739 580.786 352.021 580.541 352.352V358H579.341V347.328H580.541V351.392C580.839 351.04 581.239 350.736 581.741 350.48C582.242 350.213 582.765 350.08 583.309 350.08C584.951 350.08 585.773 350.901 585.773 352.544V358ZM591.657 358.192C590.505 358.192 589.561 357.819 588.825 357.072C588.089 356.315 587.721 355.333 587.721 354.128C587.721 352.997 588.083 352.043 588.809 351.264C589.534 350.475 590.441 350.08 591.529 350.08C592.67 350.08 593.571 350.475 594.233 351.264C594.905 352.043 595.241 353.029 595.241 354.224V354.528H588.985C589.038 355.285 589.315 355.92 589.817 356.432C590.318 356.944 590.969 357.2 591.769 357.2C592.729 357.2 593.523 356.875 594.153 356.224L594.729 357.008C593.939 357.797 592.915 358.192 591.657 358.192ZM594.057 353.648C594.046 352.987 593.822 352.395 593.385 351.872C592.947 351.339 592.323 351.072 591.513 351.072C590.745 351.072 590.137 351.333 589.689 351.856C589.251 352.379 589.017 352.976 588.985 353.648H594.057ZM598.384 358H597.184V350.272H598.384V351.52C599.099 350.581 599.958 350.112 600.96 350.112V351.344C600.811 351.312 600.651 351.296 600.48 351.296C600.118 351.296 599.723 351.424 599.296 351.68C598.87 351.936 598.566 352.219 598.384 352.528V358ZM604.914 358.192C603.602 358.192 602.562 357.787 601.794 356.976L602.418 356.112C602.684 356.421 603.047 356.683 603.506 356.896C603.975 357.109 604.46 357.216 604.962 357.216C605.538 357.216 605.986 357.093 606.306 356.848C606.626 356.603 606.786 356.283 606.786 355.888C606.786 355.547 606.62 355.28 606.29 355.088C605.959 354.885 605.559 354.736 605.09 354.64C604.631 354.533 604.167 354.416 603.698 354.288C603.228 354.149 602.828 353.92 602.498 353.6C602.167 353.269 602.002 352.837 602.002 352.304C602.002 351.675 602.258 351.147 602.77 350.72C603.292 350.293 603.996 350.08 604.882 350.08C606.044 350.08 606.999 350.453 607.746 351.2L607.186 352.032C606.642 351.381 605.874 351.056 604.882 351.056C604.359 351.056 603.943 351.173 603.634 351.408C603.324 351.632 603.17 351.92 603.17 352.272C603.17 352.581 603.335 352.827 603.666 353.008C603.996 353.179 604.391 353.317 604.85 353.424C605.319 353.52 605.788 353.637 606.258 353.776C606.727 353.915 607.127 354.16 607.458 354.512C607.788 354.853 607.954 355.301 607.954 355.856C607.954 356.539 607.687 357.099 607.154 357.536C606.62 357.973 605.874 358.192 604.914 358.192Z" fill="#333333"/>
<rect width="73" height="34" transform="translate(265 11)" fill="white"/>
<path d="M282.536 33H276.248V22.328H277.576V31.816H282.536V33ZM287.501 33.192C286.349 33.192 285.405 32.8187 284.669 32.072C283.933 31.3147 283.565 30.3333 283.565 29.128C283.565 27.9973 283.927 27.0427 284.653 26.264C285.378 25.4747 286.285 25.08 287.373 25.08C288.514 25.08 289.415 25.4747 290.077 26.264C290.749 27.0427 291.085 28.0293 291.085 29.224V29.528H284.829C284.882 30.2853 285.159 30.92 285.661 31.432C286.162 31.944 286.813 32.2 287.613 32.2C288.573 32.2 289.367 31.8747 289.997 31.224L290.573 32.008C289.783 32.7973 288.759 33.192 287.501 33.192ZM289.901 28.648C289.89 27.9867 289.666 27.3947 289.229 26.872C288.791 26.3387 288.167 26.072 287.357 26.072C286.589 26.072 285.981 26.3333 285.533 26.856C285.095 27.3787 284.861 27.976 284.829 28.648H289.901ZM296.436 33.192C295.295 33.192 294.367 32.808 293.652 32.04C292.937 31.2613 292.58 30.2907 292.58 29.128C292.58 27.9653 292.937 27 293.652 26.232C294.367 25.464 295.295 25.08 296.436 25.08C297.631 25.08 298.575 25.528 299.268 26.424L298.468 27.16C297.977 26.488 297.321 26.152 296.5 26.152C295.689 26.152 295.039 26.4293 294.548 26.984C294.068 27.5387 293.828 28.2533 293.828 29.128C293.828 30.0027 294.068 30.7227 294.548 31.288C295.039 31.8427 295.689 32.12 296.5 32.12C297.311 32.12 297.967 31.784 298.468 31.112L299.268 31.848C298.575 32.744 297.631 33.192 296.436 33.192ZM302.902 33.192C302.337 33.192 301.91 33.0373 301.622 32.728C301.334 32.4187 301.19 31.9707 301.19 31.384V26.328H299.91V25.272H301.19V23.16H302.39V25.272H303.958V26.328H302.39V31.128C302.39 31.4267 302.454 31.6667 302.582 31.848C302.721 32.0293 302.918 32.12 303.174 32.12C303.526 32.12 303.798 32.0133 303.99 31.8L304.342 32.696C303.99 33.0267 303.51 33.192 302.902 33.192ZM312.069 33H310.869V31.912C310.549 32.2747 310.144 32.5787 309.653 32.824C309.173 33.0693 308.661 33.192 308.117 33.192C306.474 33.192 305.653 32.3707 305.653 30.728V25.272H306.853V30.36C306.853 31 306.997 31.4533 307.285 31.72C307.584 31.9867 308.016 32.12 308.581 32.12C309.029 32.12 309.461 32.008 309.877 31.784C310.304 31.56 310.634 31.2827 310.869 30.952V25.272H312.069V33ZM315.666 33H314.466V25.272H315.666V26.52C316.38 25.5813 317.239 25.112 318.242 25.112V26.344C318.092 26.312 317.932 26.296 317.762 26.296C317.399 26.296 317.004 26.424 316.578 26.68C316.151 26.936 315.847 27.2187 315.666 27.528V33ZM323.235 33.192C322.083 33.192 321.139 32.8187 320.403 32.072C319.667 31.3147 319.299 30.3333 319.299 29.128C319.299 27.9973 319.662 27.0427 320.387 26.264C321.112 25.4747 322.019 25.08 323.107 25.08C324.248 25.08 325.15 25.4747 325.811 26.264C326.483 27.0427 326.819 28.0293 326.819 29.224V29.528H320.563C320.616 30.2853 320.894 30.92 321.395 31.432C321.896 31.944 322.547 32.2 323.347 32.2C324.307 32.2 325.102 31.8747 325.731 31.224L326.307 32.008C325.518 32.7973 324.494 33.192 323.235 33.192ZM325.635 28.648C325.624 27.9867 325.4 27.3947 324.963 26.872C324.526 26.3387 323.902 26.072 323.091 26.072C322.323 26.072 321.715 26.3333 321.267 26.856C320.83 27.3787 320.595 27.976 320.563 28.648H325.635Z" fill="#333333"/>
</svg>
